<?xml version="1.0" encoding="utf-8"?>
<!-- Generator: Adobe Illustrator 28.0.0, SVG Export Plug-In . SVG Version: 6.00 Build 0)  -->
<svg version="1.1" id="Layer_1" xmlns="http://www.w3.org/2000/svg" xmlns:xlink="http://www.w3.org/1999/xlink" x="0px" y="0px"
	 viewBox="0 0 486.4 182.1" style="enable-background:new 0 0 486.4 182.1;" xml:space="preserve">
<style type="text/css">
	.st0{fill:#57BD81;}
	.st1{fill:#F6C023;}
	.st2{fill:#231F20;stroke:#231F20;stroke-width:4;stroke-miterlimit:10;}
</style>
<path class="st0" d="M102.9,119.2c-9.4,0-18.3,0.1-27.2,0c-11.6-0.1-16-5.6-13.4-16.9c1.2-5.2,5.7-5.2,9.7-5.2
	 c14.2-0.2,28.4-0.1,42.6-0.1c3.7,0,7.4,0.1,11,0c2.1,0,3.1,0.8,3.2,3.1c1.1,24.9-8.8,49.4-33.9,61.7c-32.3,15.8-73.9,3.2-85.9-34.3
	C-1.2,95.9,15.1,63.4,47,54.6c8.5-2.3,16.9-2.3,25.4-0.4c4.9,1.1,8.4,5.2,8,9.5c-0.4,5-3.8,8-9.7,8.3c-13.2,0.6-25.2,4-33.7,15
	 c-9.1,11.8-10.1,28.4-2,41.3c8.1,12.9,20.5,18,35.4,16.6C87.4,143.2,99.6,133.4,102.9,119.2L102.9,119.2z"/>
<path class="st1" d="M97.9,70.9c-3.2,0-3.7-1.5-4.2-3.7c-0.8-4-1.9-8-3.8-11.7c-3.6-7-9.3-10.6-16.8-12.3c-3-0.7-7.5-0.8-7.8-4.8
	 c-0.2-3.8,4.3-4.4,7-4.9c12.6-2.3,18.6-10.7,21.3-22.2c0.7-2.7,0.9-5.6,4.3-5.3c3.2,0.3,3.6,3.5,4.1,6c1.4,7.2,4.4,13.3,10.7,17.5
	 c4.1,2.8,8.8,4,13.4,5.4c1.8,0.5,3.4,0.8,3.5,3.1c0.1,2-0.6,3.2-2.7,3.9c-1.6,0.5-3.1,1.3-4.9,1.7c-10.2,1.8-18,9.9-19.8,20
	C101.7,66.6,101,69.9,97.9,70.9z"/>
<g>
	<path class="st2" d="M152.1,149.6h-4.9c-1.8,0-3.2-1.4-3.2-3.2V57.2c0-1.8,1.4-3.2,3.2-3.2h4.9c1.8,0,3.2,1.5,3.2,3.2v89.2
		C155.3,148.1,153.9,149.6,152.1,149.6L152.1,149.6z"/>
	<path class="st2" d="M178.5,72.2c-2.2,0-4-0.7-5.5-2.2c-1.5-1.5-2.3-3.4-2.2-5.5s0.8-3.8,2.2-5.3c1.5-1.5,3.3-2.3,5.5-2.3
		 s3.9,0.8,5.4,2.3c1.5,1.5,2.2,3.3,2.2,5.4c0,2.1-0.8,4-2.2,5.4C182.4,71.4,180.6,72.2,178.5,72.2L178.5,72.2z M183.7,149.6h-10.6
		 c-0.2,0-0.4-0.2-0.4-0.4V84.5c0-0.2,0.2-0.4,0.4-0.4h10.6c0.2,0,0.4,0.2,0.4,0.4v64.7C184.1,149.4,183.9,149.6,183.7,149.6z"/>
	<path class="st2" d="M234.2,82.4c7.7,0,13.8,2.4,18.5,7.3s6.9,11.4,6.9,19.7v38.6c0,0.9-0.7,1.7-1.7,1.7h-8.1
		 c-0.9,0-1.7-0.7-1.7-1.7V110c0-5.2-1.4-9.3-4.3-12.3c-2.9-3-6.9-4.4-11.9-4.4c-5.9,0-10.5,1.8-13.9,5.4c-3.4,3.6-5.1,9-5.1,16.2
		 v33.1c0,0.9-0.7,1.7-1.7,1.7h-8.1c-0.9,0-1.7-0.7-1.7-1.7V86.1c0-1.1,0.9-2,2-2h7.5c1.1,0,1.9,0.8,1.9,1.9v1.1c0,2,2.4,3,3.9,1.6
		 C221.2,84.5,227,82.4,234.2,82.4L234.2,82.4z"/>
	<path class="st2" d="M311,84.1V95c0,0,0,0.1-0.1,0.1h-17.4v35.5c0,3.2,0.6,5.5,1.9,6.9c1.3,1.4,3.2,2.1,5.8,2.1
		 c2.2,0,4.7,0,7.7-0.1c1.1,0,2,0.8,2,1.9v6.6c0,1-0.7,1.8-1.7,1.9c-9.2,1-15.9,0.1-20.2-2.7c-4.6-3-6.9-8.5-6.9-16.5V95.1h-12.9
		 c0,0-0.1,0-0.1-0.1V84.1c0,0,0-0.1,0.1-0.1h12.9V69.2c0,0,0-0.1,0-0.1l11.2-3.4c0,0,0.1,0,0.1,0.1v18.2L311,84.1
		 C311,84.1,311,84.1,311,84.1L311,84.1z"/>
	<path class="st2" d="M324.9,118.8V61.4c0-2,1.6-3.6,3.6-3.6h5.7c1.6,0,2.9,1.3,2.9,2.9v57.5c0,6.6,1.9,11.7,5.8,15.5
		 c3.9,3.8,9.4,5.6,16.4,5.6s12.5-1.9,16.4-5.6c3.9-3.8,5.8-8.9,5.8-15.5V60.8c0-1.6,1.3-2.9,2.9-2.9h6.3c1.6,0,2.9,1.3,2.9,2.9v58
		 c0,10-3.2,17.9-9.6,23.7c-6.4,5.9-14.6,8.8-24.8,8.8s-18.5-2.9-24.9-8.8C328.1,136.6,325,128.8,324.9,118.8L324.9,118.8z"/>
	<path class="st2" d="M447.3,82.4c9.2,0,17,3.4,23.5,10.1c6.5,6.7,9.7,14.8,9.7,24.4s-3.2,17.8-9.7,24.5c-6.4,6.6-14.2,10-23.5,10
		 c-8.5,0-15.5-2.7-20.8-8.1c-1.5-1.5-3.9-0.4-3.9,1.6v29.2c0,0.9-0.8,1.7-1.7,1.7h-7.9c-1,0-1.7-0.8-1.7-1.7V85.8
		 c0-0.9,0.8-1.7,1.7-1.7h7.9c1,0,1.7,0.8,1.7,1.7v2.8c0,2.1,2.6,3.2,4.1,1.7C431.9,85,438.8,82.4,447.3,82.4L447.3,82.4z
		 M445.9,140.3c6.5,0,12-2.2,16.5-6.7c4.5-4.6,6.7-10.2,6.7-16.8s-2.2-12.2-6.7-16.6c-4.5-4.5-10-6.8-16.5-6.8s-12.2,2.3-16.6,6.8
		 c-4.5,4.4-6.7,10-6.7,16.6s2.2,12.1,6.7,16.8C433.7,138,439.2,140.3,445.9,140.3L445.9,140.3z"/>
</g>
</svg>
