<svg width="160" height="40" viewBox="0 0 160 40" xmlns="http://www.w3.org/2000/svg" xmlns:xlink="http://www.w3.org/1999/xlink">
  <defs>
    <style>
      .logo-text { font-family: 'Arial', sans-serif; font-weight: 600; }
    </style>
  </defs>
  <!-- Green G -->
  <path d="M8 32c-4.4 0-8-3.6-8-8s3.6-8 8-8c4.4 0 8 3.6 8 8h-3c0-2.8-2.2-5-5-5s-5 2.2-5 5 2.2 5 5 5h3v3H8z" fill="#57BD81"/>
  <rect x="11" y="24" width="5" height="3" fill="#57BD81"/>
  <!-- Yellow star -->
  <path d="M18 12l1.5 4 4-1.5-1.5-4-4 1.5z" fill="#F6C023"/>
  <path d="M18 16l4 1.5 1.5-4-4-1.5L18 16z" fill="#F6C023"/>
  <!-- Glintup text -->
  <text x="28" y="28" class="logo-text" font-size="16" fill="#231F20">Glintup</text>
</svg>