
<svg width="180" height="40" viewBox="0 0 180 40" fill="none" xmlns="http://www.w3.org/2000/svg">
  <!-- Spark/Twinkle Icon -->
  <g>
    <path d="M16.7 14.2L18.7 18.2L22.7 16.2L20.7 12.2L16.7 14.2Z" fill="#2DCDA5"/>
    <path d="M16.7 18.2L20.7 20.2L22.7 16.2L18.7 14.2L16.7 18.2Z" fill="#FF6B6B"/>
    <circle cx="26.2" cy="10.5" r="1.5" fill="#2DCDA5" opacity="0.6"/>
    <circle cx="13.5" cy="20" r="1" fill="#FF6B6B" opacity="0.6"/>
  </g>
  
  <!-- Wordmark: GLINTUP -->
  <path d="M40.8 28H31.8V15.2H40.4V17.6H34.6V20.2H39.8V22.6H34.6V25.6H40.8V28Z" fill="#3F3D56"/>
  <path d="M50.6 28H47.8V15.2H50.6V28Z" fill="#3F3D56"/>
  <path d="M61.2 28H58.4V15.2H61.2V28Z" fill="#3F3D56"/>
  <path d="M77.9 28H75.1V18.6H71.1V15.2H81.9V18.6H77.9V28Z" fill="#3F3D56"/>
  <path d="M89.4 28H86.6V15.2H89.4V20.8H95.4V15.2H98.2V28H95.4V24H89.4V28Z" fill="#3F3D56"/>
  <path d="M114.3 28H104.7V15.2H107.5V25.6H114.3V28Z" fill="#3F3D56"/>
  <path d="M130.1 21.6C130.1 22.8667 129.867 24 129.4 25C128.933 26 128.233 26.7667 127.3 27.3C126.367 27.8333 125.3 28.1 124.1 28.1C122.9 28.1 121.833 27.8333 120.9 27.3C119.967 26.7667 119.267 26 118.8 25C118.333 24 118.1 22.8667 118.1 21.6C118.1 20.3333 118.333 19.2 118.8 18.2C119.267 17.2 119.967 16.4333 120.9 15.9C121.833 15.3667 122.9 15.1 124.1 15.1C125.3 15.1 126.367 15.3667 127.3 15.9C128.233 16.4333 128.933 17.2 129.4 18.2C129.867 19.2 130.1 20.3333 130.1 21.6ZM127.1 21.6C127.1 20.8 126.967 20.1333 126.7 19.6C126.433 19.0667 126.067 18.6667 125.6 18.4C125.133 18.1333 124.633 18 124.1 18C123.567 18 123.067 18.1333 122.6 18.4C122.133 18.6667 121.767 19.0667 121.5 19.6C121.233 20.1333 121.1 20.8 121.1 21.6C121.1 22.4 121.233 23.0667 121.5 23.6C121.767 24.1333 122.133 24.5333 122.6 24.8C123.067 25.0667 123.567 25.2 124.1 25.2C124.633 25.2 125.133 25.0667 125.6 24.8C126.067 24.5333 126.433 24.1333 126.7 23.6C126.967 23.0667 127.1 22.4 127.1 21.6Z" fill="#3F3D56"/>
</svg>
