<svg width="200" height="50" viewBox="0 0 200 50" xmlns="http://www.w3.org/2000/svg">
  <!-- Green G -->
  <path d="M10 35C4.477 35 0 30.523 0 25C0 19.477 4.477 15 10 15C15.523 15 20 19.477 20 25H15C15 22.239 12.761 20 10 20C7.239 20 5 22.239 5 25C5 27.761 7.239 30 10 30H15V35H10Z" fill="#7CB342"/>
  <rect x="15" y="25" width="8" height="5" fill="#7CB342"/>
  
  <!-- Yellow star/sparkle -->
  <path d="M25 10L27 16L33 14L31 8L25 10Z" fill="#FFD54F"/>
  <path d="M25 16L31 18L33 14L27 12L25 16Z" fill="#FFD54F"/>
  
  <!-- Glintup text -->
  <text x="40" y="32" font-family="Arial, sans-serif" font-size="24" font-weight="600" fill="#2D2D2D">Glintup</text>
</svg>