
<svg width="200" height="50" viewBox="0 0 200 50" fill="none" xmlns="http://www.w3.org/2000/svg">
  <!-- Wordmark: GLINTUP -->
  <path d="M26.8 35H14.8V18.2H26.2V21.4H18.4V25H25.4V28.2H18.4V31.8H26.8V35Z" fill="#3F3D56"/>
  <path d="M40.6 35H36.8V18.2H40.6V35Z" fill="#3F3D56"/>
  <path d="M56.2 35H52.4V18.2H56.2V35Z" fill="#3F3D56"/>
  <path d="M77.9 35H74.1V22.2H68.7V18.2H83.3V22.2H77.9V35Z" fill="#3F3D56"/>
  <path d="M92.4 35H88.6V18.2H92.4V25.8H100.4V18.2H104.2V35H100.4V29H92.4V35Z" fill="#3F3D56"/>
  <path d="M124.3 35H110.7V18.2H114.5V31.8H124.3V35Z" fill="#3F3D56"/>
  <path d="M145.1 26.6C145.1 28.2667 144.767 29.7333 144.1 31C143.433 32.2667 142.5 33.2333 141.3 33.9C140.1 34.5667 138.733 34.9 137.2 34.9C135.667 34.9 134.3 34.5667 133.1 33.9C131.9 33.2333 130.967 32.2667 130.3 31C129.633 29.7333 129.3 28.2667 129.3 26.6C129.3 24.9333 129.633 23.4667 130.3 22.2C130.967 20.9333 131.9 19.9667 133.1 19.3C134.3 18.6333 135.667 18.3 137.2 18.3C138.733 18.3 140.1 18.6333 141.3 19.3C142.5 19.9667 143.433 20.9333 144.1 22.2C144.767 23.4667 145.1 24.9333 145.1 26.6ZM141.2 26.6C141.2 25.5333 141.033 24.6333 140.7 23.9C140.367 23.1667 139.9 22.6 139.3 22.2C138.7 21.8 138 21.6 137.2 21.6C136.4 21.6 135.7 21.8 135.1 22.2C134.5 22.6 134.033 23.1667 133.7 23.9C133.367 24.6333 133.2 25.5333 133.2 26.6C133.2 27.6667 133.367 28.5667 133.7 29.3C134.033 30.0333 134.5 30.6 135.1 31C135.7 31.4 136.4 31.6 137.2 31.6C138 31.6 138.7 31.4 139.3 31C139.9 30.6 140.367 30.0333 140.7 29.3C141.033 28.5667 141.2 27.6667 141.2 26.6Z" fill="#3F3D56"/>
  
  <!-- Spark/Twinkle Icon above the letter "I" -->
  <g>
    <!-- Main starburst -->
    <path d="M46.7 10.2L48.7 14.2L52.7 12.2L50.7 8.2L46.7 10.2Z" fill="#2DCDA5"/>
    <path d="M46.7 14.2L50.7 16.2L52.7 12.2L48.7 10.2L46.7 14.2Z" fill="#FF6B6B"/>
    <!-- Small glow effects -->
    <circle cx="56.2" cy="6.5" r="1.5" fill="#2DCDA5" opacity="0.6"/>
    <circle cx="43.5" cy="16" r="1" fill="#FF6B6B" opacity="0.6"/>
    <circle cx="53" cy="3" r="1" fill="#FF6B6B" opacity="0.6"/>
    <circle cx="40" cy="10" r="0.8" fill="#2DCDA5" opacity="0.6"/>
  </g>
</svg>
