
<svg width="200" height="50" viewBox="0 0 200 50" xmlns="http://www.w3.org/2000/svg">
  <path d="M10.2 35V18.2H14V31.8H22.4V35H10.2Z" fill="#2DCDA5"/>
  <path d="M35.7 26.6C35.7 28.2667 35.367 29.7333 34.7 31C34.033 32.2667 33.1 33.2333 31.9 33.9C30.7 34.5667 29.333 34.9 27.8 34.9C26.267 34.9 24.9 34.5667 23.7 33.9C22.5 33.2333 21.567 32.2667 20.9 31C20.233 29.7333 19.9 28.2667 19.9 26.6C19.9 24.9333 20.233 23.4667 20.9 22.2C21.567 20.9333 22.5 19.9667 23.7 19.3C24.9 18.6333 26.267 18.3 27.8 18.3C29.333 18.3 30.7 18.6333 31.9 19.3C33.1 19.9667 34.033 20.9333 34.7 22.2C35.367 23.4667 35.7 24.9333 35.7 26.6ZM31.8 26.6C31.8 25.5333 31.633 24.6333 31.3 23.9C30.967 23.1667 30.5 22.6 29.9 22.2C29.3 21.8 28.6 21.6 27.8 21.6C27 21.6 26.3 21.8 25.7 22.2C25.1 22.6 24.633 23.1667 24.3 23.9C23.967 24.6333 23.8 25.5333 23.8 26.6C23.8 27.6667 23.967 28.5667 24.3 29.3C24.633 30.0333 25.1 30.6 25.7 31C26.3 31.4 27 31.6 27.8 31.6C28.6 31.6 29.3 31.4 29.9 31C30.5 30.6 30.967 30.0333 31.3 29.3C31.633 28.5667 31.8 27.6667 31.8 26.6Z" fill="#2DCDA5"/>
  <path d="M46.3 35H42.5V18.2H46.3V35Z" fill="#3F3D56"/>
  <path d="M61.9 35H58.1V22.2H52.7V18.2H67.3V22.2H61.9V35Z" fill="#3F3D56"/>
  <path d="M76.4 35H72.6V18.2H76.4V25.8H84.4V18.2H88.2V35H84.4V29H76.4V35Z" fill="#3F3D56"/>
  <path d="M108.3 35H94.7V18.2H98.5V31.8H108.3V35Z" fill="#3F3D56"/>
  <path d="M129.1 26.6C129.1 28.2667 128.767 29.7333 128.1 31C127.433 32.2667 126.5 33.2333 125.3 33.9C124.1 34.5667 122.733 34.9 121.2 34.9C119.667 34.9 118.3 34.5667 117.1 33.9C115.9 33.2333 114.967 32.2667 114.3 31C113.633 29.7333 113.3 28.2667 113.3 26.6C113.3 24.9333 113.633 23.4667 114.3 22.2C114.967 20.9333 115.9 19.9667 117.1 19.3C118.3 18.6333 119.667 18.3 121.2 18.3C122.733 18.3 124.1 18.6333 125.3 19.3C126.5 19.9667 127.433 20.9333 128.1 22.2C128.767 23.4667 129.1 24.9333 129.1 26.6ZM125.2 26.6C125.2 25.5333 125.033 24.6333 124.7 23.9C124.367 23.1667 123.9 22.6 123.3 22.2C122.7 21.8 122 21.6 121.2 21.6C120.4 21.6 119.7 21.8 119.1 22.2C118.5 22.6 118.033 23.1667 117.7 23.9C117.367 24.6333 117.2 25.5333 117.2 26.6C117.2 27.6667 117.367 28.5667 117.7 29.3C118.033 30.0333 118.5 30.6 119.1 31C119.7 31.4 120.4 31.6 121.2 31.6C122 31.6 122.7 31.4 123.3 31C123.9 30.6 124.367 30.0333 124.7 29.3C125.033 28.5667 125.2 27.6667 125.2 26.6Z" fill="#3F3D56"/>
  
  <!-- Spark/Twinkle Icon -->
  <g>
    <path d="M36.7 10.2L38.7 14.2L42.7 12.2L40.7 8.2L36.7 10.2Z" fill="#2DCDA5"/>
    <path d="M36.7 14.2L40.7 16.2L42.7 12.2L38.7 10.2L36.7 14.2Z" fill="#FF6B6B"/>
    <circle cx="46.2" cy="6.5" r="1.5" fill="#2DCDA5" opacity="0.6"/>
    <circle cx="33.5" cy="16" r="1" fill="#FF6B6B" opacity="0.6"/>
    <circle cx="43" cy="3" r="1" fill="#FF6B6B" opacity="0.6"/>
    <circle cx="30" cy="10" r="0.8" fill="#2DCDA5" opacity="0.6"/>
  </g>
</svg>
